<svg width="220.000000" height="73.108887" viewBox="0 0 220 73.1089" fill="none" xmlns="http://www.w3.org/2000/svg" xmlns:xlink="http://www.w3.org/1999/xlink">
	<desc>
			Created with Pixso.
	</desc>
	<defs/>
	<path d="M207.43 20.59L207.43 35.48L185.88 35.49L185.88 20.59L179.33 20.59L179.33 42.72L180.1 42.72C187.88 42.71 195.66 42.7 203.44 42.69C204.95 42.69 206.46 42.69 207.97 42.68C210.02 42.67 212.07 42.67 214.12 42.67L214.12 45.23L220 45.23L220 35.42L214.18 35.42C214.1 35.29 214.1 35.06 214.1 34.64L214.1 21.48C214.1 21.26 214.09 21.05 214.08 20.85C214.07 20.76 214.06 20.68 214.06 20.59L207.43 20.59Z" fill="#00578A" fill-opacity="1.000000" fill-rule="nonzero"/>
	<path d="M131.68 29.3L131.68 42.65L125.08 42.65L125.08 20.6C126.81 20.6 128.52 20.6 130.23 20.61C130.47 20.65 130.7 20.73 130.91 20.85C136.8 23.35 142.69 25.87 148.58 28.39C148.81 28.5 149.07 28.56 149.33 28.55C149.59 28.55 149.85 28.48 150.08 28.36C155.78 25.84 161.49 23.33 167.21 20.84C167.56 20.69 167.94 20.61 168.32 20.61C169.86 20.58 171.4 20.61 173.01 20.61L173.01 42.68L166.44 42.68L166.44 29.37C166.08 29.52 165.83 29.61 165.6 29.71C160.45 31.99 155.3 34.27 150.16 36.56C149.93 36.68 149.68 36.75 149.42 36.76C149.16 36.76 148.9 36.71 148.67 36.6C143.31 34.26 137.94 31.94 132.56 29.64C132.3 29.52 132.03 29.44 131.68 29.3Z" fill="#00578A" fill-opacity="1.000000" fill-rule="nonzero"/>
	<path d="M84.14 20.59L119 20.59L119 21.67C119 23.39 118.96 25.11 119.02 26.82C119.04 27.55 118.78 27.7 118.1 27.7C109.34 27.68 100.57 27.67 91.8 27.68L90.74 27.68L90.74 42.41L84.14 42.41L84.14 20.59Z" fill="#00578A" fill-opacity="1.000000" fill-rule="nonzero"/>
	<path d="M84.01 53.58L84.01 49.14L87.24 49.14L87.24 49.78L84.83 49.78L84.83 53.58L84.01 53.58Z" fill="#151515" fill-opacity="1.000000" fill-rule="nonzero"/>
	<path d="M90.07 53.58C89.67 53.59 89.28 53.49 88.93 53.3C88.61 53.12 88.35 52.84 88.18 52.51C88 52.13 87.9 51.72 87.92 51.3C87.9 50.87 88 50.45 88.18 50.07C88.35 49.74 88.61 49.47 88.93 49.28C89.28 49.09 89.67 48.99 90.07 49C90.47 48.99 90.86 49.09 91.21 49.28C91.54 49.47 91.79 49.74 91.96 50.07C92.14 50.45 92.23 50.87 92.22 51.29C92.23 51.71 92.14 52.13 91.96 52.51C91.79 52.84 91.54 53.12 91.21 53.3C90.86 53.49 90.47 53.59 90.07 53.58ZM90.07 52.95C90.25 52.95 90.43 52.92 90.6 52.85C90.77 52.77 90.92 52.66 91.04 52.53C91.28 52.24 91.4 51.83 91.4 51.29C91.4 50.74 91.28 50.33 91.04 50.06C90.92 49.92 90.77 49.82 90.6 49.74C90.43 49.67 90.25 49.64 90.07 49.65C89.89 49.64 89.71 49.67 89.54 49.74C89.37 49.82 89.22 49.92 89.1 50.06C88.86 50.33 88.74 50.74 88.74 51.29C88.74 51.83 88.86 52.25 89.1 52.53C89.22 52.66 89.37 52.77 89.54 52.85C89.71 52.92 89.89 52.95 90.07 52.95Z" fill="#151515" fill-opacity="1.000000" fill-rule="nonzero"/>
	<path d="M93.51 55.47L93.51 50.14C93.51 49.97 93.51 49.79 93.49 49.62C93.47 49.44 93.46 49.26 93.43 49.08L94.22 49.08L94.32 50.11L94.22 50.11C94.31 49.78 94.51 49.49 94.8 49.3C95.12 49.1 95.49 48.99 95.86 49C96.24 49 96.6 49.09 96.92 49.28C97.23 49.47 97.48 49.75 97.63 50.07C97.8 50.46 97.89 50.89 97.88 51.31C97.89 51.74 97.8 52.16 97.63 52.55C97.48 52.88 97.23 53.16 96.92 53.35C96.6 53.54 96.24 53.64 95.86 53.63C95.49 53.64 95.13 53.53 94.82 53.33C94.53 53.14 94.32 52.86 94.23 52.53L94.32 52.53L94.32 55.47L93.51 55.47ZM95.68 52.99C95.86 53 96.05 52.96 96.23 52.89C96.4 52.81 96.55 52.7 96.67 52.56C96.92 52.28 97.04 51.86 97.04 51.31C97.04 50.76 96.92 50.35 96.67 50.07C96.55 49.93 96.4 49.82 96.22 49.75C96.05 49.68 95.86 49.65 95.68 49.65C95.49 49.65 95.31 49.68 95.14 49.75C94.96 49.82 94.81 49.93 94.69 50.07C94.45 50.35 94.32 50.76 94.32 51.31C94.32 51.86 94.45 52.28 94.69 52.56C94.81 52.7 94.96 52.82 95.14 52.89C95.31 52.96 95.5 53 95.68 52.99L95.68 52.99Z" fill="#151515" fill-opacity="1.000000" fill-rule="nonzero"/>
	<path d="M100.97 53.58C100.58 53.59 100.18 53.49 99.83 53.3C99.51 53.12 99.25 52.84 99.09 52.51C98.9 52.13 98.81 51.72 98.82 51.3C98.81 50.87 98.9 50.45 99.09 50.07C99.25 49.74 99.51 49.47 99.83 49.28C100.18 49.09 100.58 48.99 100.97 49C101.37 48.99 101.77 49.09 102.12 49.28C102.44 49.47 102.7 49.74 102.87 50.07C103.05 50.45 103.14 50.87 103.13 51.29C103.14 51.71 103.05 52.13 102.87 52.51C102.7 52.84 102.44 53.12 102.12 53.3C101.77 53.49 101.37 53.59 100.97 53.58ZM100.97 52.95C101.16 52.95 101.34 52.92 101.51 52.85C101.67 52.77 101.82 52.66 101.94 52.53C102.18 52.24 102.3 51.83 102.3 51.29C102.3 50.74 102.18 50.33 101.94 50.06C101.82 49.92 101.67 49.82 101.5 49.74C101.34 49.67 101.16 49.64 100.97 49.65C100.79 49.64 100.61 49.67 100.44 49.74C100.28 49.81 100.13 49.92 100.01 50.06C99.77 50.33 99.64 50.74 99.64 51.29C99.64 51.83 99.77 52.25 100.01 52.53C100.13 52.66 100.27 52.77 100.44 52.85C100.61 52.92 100.79 52.95 100.97 52.95Z" fill="#151515" fill-opacity="1.000000" fill-rule="nonzero"/>
	<path d="M104.07 54.66L104.07 52.91L104.56 52.91C104.77 52.59 104.92 52.23 105 51.86C105.1 51.39 105.14 50.91 105.14 50.43L105.14 49.14L108.34 49.14L108.34 52.91L109.05 52.91L109.05 54.66L108.36 54.66L108.36 53.52L104.76 53.52L104.76 54.66L104.07 54.66ZM105.32 52.91L107.59 52.91L107.59 49.75L105.85 49.75L105.85 50.57C105.85 51.01 105.81 51.44 105.72 51.86C105.64 52.23 105.51 52.59 105.31 52.91L105.32 52.91Z" fill="#151515" fill-opacity="1.000000" fill-rule="nonzero"/>
	<path d="M112.09 53.58C111.68 53.59 111.27 53.5 110.91 53.3C110.58 53.12 110.31 52.84 110.14 52.5C109.94 52.12 109.85 51.69 109.86 51.26C109.85 50.84 109.95 50.42 110.14 50.04C110.32 49.72 110.59 49.45 110.93 49.27C111.29 49.09 111.69 49 112.09 49C112.38 49 112.68 49.05 112.95 49.15C113.21 49.23 113.44 49.38 113.63 49.57L113.35 50.13C113.18 49.97 112.99 49.85 112.77 49.76C112.57 49.69 112.36 49.65 112.15 49.65C111.95 49.64 111.76 49.67 111.57 49.74C111.39 49.81 111.23 49.92 111.1 50.06C110.85 50.34 110.72 50.74 110.72 51.27C110.69 51.71 110.82 52.15 111.1 52.5C111.23 52.64 111.39 52.76 111.57 52.83C111.75 52.91 111.95 52.94 112.15 52.93C112.36 52.93 112.57 52.89 112.76 52.82C112.98 52.74 113.18 52.61 113.35 52.46L113.63 53.01C113.44 53.2 113.2 53.35 112.94 53.44C112.67 53.53 112.38 53.58 112.09 53.58Z" fill="#151515" fill-opacity="1.000000" fill-rule="nonzero"/>
	<path d="M114.71 53.58L114.71 49.14L115.51 49.14L115.51 50.98L116.32 50.98L117.77 49.14L118.66 49.14L116.98 51.3L116.76 51.05C116.92 51.06 117.07 51.11 117.21 51.18C117.35 51.26 117.47 51.36 117.57 51.47C117.71 51.64 117.84 51.81 117.95 52L118.88 53.58L118.01 53.58L117.19 52.21C117.12 52.07 117.03 51.95 116.92 51.84C116.84 51.75 116.74 51.68 116.62 51.64C116.49 51.61 116.35 51.59 116.21 51.59L115.51 51.59L115.51 53.57L114.71 53.58Z" fill="#151515" fill-opacity="1.000000" fill-rule="nonzero"/>
	<path d="M121.71 53.58C121.31 53.59 120.92 53.49 120.57 53.3C120.25 53.12 119.99 52.84 119.82 52.51C119.64 52.13 119.54 51.72 119.56 51.3C119.54 50.87 119.63 50.45 119.82 50.07C119.99 49.74 120.25 49.47 120.57 49.28C120.92 49.09 121.31 48.99 121.71 49C122.11 48.99 122.5 49.09 122.85 49.28C123.18 49.47 123.44 49.74 123.6 50.07C123.78 50.45 123.87 50.87 123.86 51.29C123.87 51.71 123.78 52.13 123.6 52.51C123.44 52.84 123.18 53.12 122.85 53.3C122.5 53.49 122.11 53.59 121.71 53.58ZM121.71 52.95C121.89 52.95 122.07 52.92 122.24 52.85C122.41 52.77 122.56 52.66 122.68 52.53C122.92 52.24 123.04 51.83 123.04 51.29C123.04 50.74 122.92 50.33 122.68 50.06C122.56 49.92 122.41 49.82 122.24 49.74C122.07 49.67 121.89 49.64 121.71 49.65C121.53 49.64 121.35 49.67 121.18 49.74C121.01 49.82 120.86 49.92 120.74 50.06C120.5 50.33 120.38 50.74 120.38 51.29C120.38 51.83 120.5 52.25 120.74 52.53C120.86 52.66 121.01 52.77 121.18 52.85C121.34 52.92 121.53 52.95 121.71 52.95Z" fill="#151515" fill-opacity="1.000000" fill-rule="nonzero"/>
	<path d="M125.08 53.57L125.08 49.12L125.83 49.12L125.83 52.82L125.58 52.82L128.42 49.13L129.11 49.13L129.11 53.58L128.36 53.58L128.36 49.88L128.61 49.88L125.77 53.58L125.08 53.57ZM127.09 48.71C126.85 48.71 126.6 48.67 126.38 48.58C126.16 48.49 125.97 48.36 125.82 48.19C125.65 48.01 125.53 47.8 125.47 47.56L125.94 47.39C126.02 47.64 126.18 47.86 126.38 48.02C126.59 48.15 126.84 48.22 127.09 48.21C127.35 48.22 127.6 48.15 127.81 48.02C128.03 47.85 128.2 47.64 128.31 47.39L128.75 47.55C128.63 47.9 128.4 48.21 128.09 48.42C127.8 48.61 127.45 48.71 127.09 48.71Z" fill="#151515" fill-opacity="1.000000" fill-rule="nonzero"/>
	<path d="M133.02 53.58L133.02 49.14L133.7 49.14L135.37 52.05L137.05 49.14L137.73 49.14L137.73 53.58L137.01 53.58L137.01 50.04L137.2 50.04L135.58 52.87L135.17 52.87L133.54 50.03L133.74 50.03L133.74 53.58L133.02 53.58Z" fill="#151515" fill-opacity="1.000000" fill-rule="nonzero"/>
	<path d="M141.24 53.58C140.53 53.58 139.97 53.38 139.56 52.97C139.15 52.57 138.94 52.02 138.94 51.31C138.93 50.88 139.02 50.47 139.21 50.09C139.38 49.76 139.64 49.48 139.96 49.29C140.3 49.1 140.69 49 141.08 49C141.44 48.99 141.8 49.08 142.11 49.26C142.4 49.44 142.62 49.69 142.76 50C142.92 50.35 142.99 50.74 142.98 51.12L142.98 51.39L139.57 51.39L139.57 50.91L142.43 50.91L142.28 51.02C142.31 50.65 142.2 50.27 141.98 49.96C141.87 49.83 141.73 49.73 141.57 49.66C141.42 49.6 141.25 49.57 141.08 49.58C140.89 49.57 140.7 49.6 140.52 49.68C140.35 49.76 140.2 49.88 140.08 50.02C139.83 50.37 139.7 50.8 139.73 51.23L139.73 51.31C139.73 51.85 139.86 52.25 140.13 52.53C140.28 52.67 140.45 52.78 140.65 52.85C140.84 52.92 141.04 52.95 141.25 52.94C141.5 52.94 141.75 52.91 141.99 52.83C142.24 52.74 142.46 52.62 142.66 52.45L142.92 53C142.71 53.19 142.45 53.33 142.17 53.42C141.87 53.53 141.56 53.58 141.24 53.58Z" fill="#151515" fill-opacity="1.000000" fill-rule="nonzero"/>
	<path d="M143.79 54.66L143.79 52.91L144.29 52.91C144.5 52.59 144.66 52.23 144.74 51.86C144.84 51.39 144.89 50.91 144.88 50.43L144.88 49.14L148.18 49.14L148.18 52.91L148.91 52.91L148.91 54.66L148.18 54.66L148.18 53.52L144.51 53.52L144.51 54.66L143.79 54.66ZM145.07 52.91L147.39 52.91L147.39 49.75L145.61 49.75L145.61 50.57C145.61 51.01 145.56 51.44 145.47 51.86C145.4 52.23 145.26 52.58 145.07 52.91Z" fill="#151515" fill-opacity="1.000000" fill-rule="nonzero"/>
	<path d="M149.85 53.57L149.85 49.14L150.6 49.14L150.6 52.82L150.36 52.82L153.2 49.15L153.89 49.15L153.89 53.58L153.13 53.58L153.13 49.9L153.39 49.9L150.54 53.58L149.85 53.57Z" fill="#151515" fill-opacity="1.000000" fill-rule="nonzero"/>
	<path d="M159.26 54.79L159.26 53.63L155.37 53.63L155.37 49.14L156.17 49.14L156.17 53L158.43 53L158.43 49.14L159.23 49.14L159.23 53L159.95 53L159.95 54.79L159.26 54.79Z" fill="#151515" fill-opacity="1.000000" fill-rule="nonzero"/>
	<path d="M161.02 53.57L161.02 49.14L161.78 49.14L161.78 52.82L161.53 52.82L164.37 49.15L165.06 49.15L165.06 53.58L164.31 53.58L164.31 49.9L164.56 49.9L161.72 53.58L161.02 53.57Z" fill="#151515" fill-opacity="1.000000" fill-rule="nonzero"/>
	<path d="M166.54 53.58L166.54 49.14L167.36 49.14L167.36 50.98L169.77 50.98L169.77 49.14L170.58 49.14L170.58 53.58L169.77 53.58L169.77 51.61L167.36 51.61L167.36 53.58L166.54 53.58Z" fill="#151515" fill-opacity="1.000000" fill-rule="nonzero"/>
	<path d="M174.03 53.58C173.62 53.59 173.21 53.5 172.85 53.3C172.51 53.12 172.24 52.84 172.07 52.5C171.88 52.12 171.78 51.69 171.8 51.26C171.78 50.84 171.88 50.42 172.08 50.04C172.25 49.72 172.52 49.45 172.85 49.27C173.21 49.09 173.62 49 174.02 49C174.32 49 174.61 49.05 174.88 49.15C175.14 49.23 175.37 49.38 175.56 49.57L175.28 50.13C175.12 49.97 174.92 49.85 174.7 49.76C174.5 49.69 174.29 49.65 174.08 49.65C173.88 49.64 173.69 49.67 173.5 49.74C173.32 49.81 173.16 49.92 173.03 50.06C172.77 50.34 172.65 50.74 172.65 51.27C172.62 51.71 172.75 52.15 173.03 52.5C173.16 52.64 173.32 52.76 173.5 52.83C173.68 52.91 173.88 52.94 174.08 52.93C174.29 52.93 174.5 52.89 174.69 52.82C174.91 52.74 175.11 52.61 175.28 52.46L175.56 53.01C175.37 53.2 175.13 53.35 174.87 53.44C174.6 53.53 174.32 53.58 174.03 53.58Z" fill="#151515" fill-opacity="1.000000" fill-rule="nonzero"/>
	<path d="M176.64 53.58L176.64 49.14L177.46 49.14L177.46 50.98L178.27 50.98L179.72 49.14L180.6 49.14L178.91 51.3L178.7 51.05C178.85 51.06 179.01 51.11 179.14 51.18C179.28 51.26 179.4 51.36 179.51 51.47C179.65 51.64 179.77 51.81 179.89 52L180.82 53.58L179.94 53.58L179.13 52.21C179.06 52.07 178.97 51.95 178.86 51.84C178.78 51.75 178.67 51.68 178.56 51.64C178.42 51.61 178.28 51.59 178.14 51.59L177.46 51.59L177.46 53.57L176.64 53.58Z" fill="#151515" fill-opacity="1.000000" fill-rule="nonzero"/>
	<path d="M181.62 53.57L181.62 49.14L182.38 49.14L182.38 52.82L182.13 52.82L184.97 49.15L185.66 49.15L185.66 53.58L184.92 53.58L184.92 49.9L185.17 49.9L182.33 53.58L181.62 53.57Z" fill="#151515" fill-opacity="1.000000" fill-rule="nonzero"/>
	<path d="M187.14 53.57L187.14 49.12L187.9 49.12L187.9 52.82L187.66 52.82L190.49 49.13L191.18 49.13L191.18 53.58L190.42 53.58L190.42 49.88L190.68 49.88L187.83 53.58L187.14 53.57ZM189.16 48.72C188.92 48.72 188.67 48.68 188.45 48.59C188.23 48.51 188.04 48.38 187.89 48.21C187.73 48.03 187.61 47.81 187.54 47.58L188.01 47.41C188.09 47.65 188.24 47.86 188.45 48.02C188.66 48.15 188.9 48.22 189.15 48.21C189.41 48.22 189.66 48.15 189.87 48.02C190.09 47.85 190.26 47.64 190.36 47.39L190.81 47.55C190.69 47.9 190.46 48.21 190.15 48.42C189.86 48.61 189.51 48.72 189.16 48.72Z" fill="#151515" fill-opacity="1.000000" fill-rule="nonzero"/>
	<path d="M198.98 54.79L198.98 53.63L195.09 53.63L195.09 49.14L195.89 49.14L195.89 53L198.14 53L198.14 49.14L198.95 49.14L198.95 53L199.66 53L199.66 54.79L198.98 54.79Z" fill="#151515" fill-opacity="1.000000" fill-rule="nonzero"/>
	<path d="M202.77 53.58C202.06 53.58 201.5 53.38 201.09 52.98C200.68 52.57 200.47 52.02 200.47 51.31C200.46 50.89 200.55 50.47 200.74 50.09C200.91 49.76 201.17 49.48 201.49 49.29C201.83 49.1 202.21 49 202.61 49C202.97 48.99 203.33 49.08 203.64 49.26C203.93 49.44 204.15 49.69 204.29 50C204.44 50.35 204.52 50.73 204.51 51.12L204.51 51.38L201.1 51.38L201.1 50.91L203.96 50.91L203.81 51.02C203.84 50.64 203.73 50.27 203.51 49.96C203.4 49.83 203.26 49.73 203.1 49.66C202.95 49.6 202.78 49.57 202.61 49.58C202.42 49.57 202.23 49.6 202.06 49.68C201.88 49.76 201.73 49.87 201.61 50.02C201.36 50.37 201.23 50.8 201.25 51.23L201.25 51.31C201.25 51.84 201.39 52.26 201.66 52.52C201.81 52.67 201.98 52.78 202.17 52.85C202.37 52.92 202.57 52.95 202.78 52.94C203.03 52.94 203.28 52.9 203.52 52.82C203.77 52.74 203.99 52.61 204.19 52.44L204.45 53C204.23 53.19 203.98 53.33 203.7 53.42C203.4 53.52 203.09 53.58 202.77 53.58Z" fill="#151515" fill-opacity="1.000000" fill-rule="nonzero"/>
	<path d="M205.72 53.58L205.72 49.14L206.53 49.14L206.53 50.98L208.95 50.98L208.95 49.14L209.76 49.14L209.76 53.58L208.95 53.58L208.95 51.61L206.53 51.61L206.53 53.58L205.72 53.58Z" fill="#151515" fill-opacity="1.000000" fill-rule="nonzero"/>
	<path d="M212.19 53.58L212.19 49.78L210.57 49.78L210.57 49.14L214.61 49.14L214.61 49.78L212.99 49.78L212.99 53.58L212.19 53.58Z" fill="#151515" fill-opacity="1.000000" fill-rule="nonzero"/>
	<path d="M215.49 55.47L215.49 50.14C215.49 49.97 215.49 49.79 215.47 49.62C215.46 49.44 215.44 49.26 215.42 49.08L216.21 49.08L216.31 50.11L216.21 50.11C216.3 49.78 216.5 49.49 216.79 49.3C217.11 49.1 217.48 48.99 217.85 49C218.22 49 218.59 49.09 218.91 49.28C219.22 49.47 219.46 49.75 219.61 50.07C219.79 50.46 219.87 50.89 219.86 51.31C219.87 51.74 219.79 52.16 219.61 52.55C219.46 52.88 219.22 53.16 218.91 53.35C218.59 53.54 218.22 53.64 217.85 53.63C217.48 53.64 217.12 53.53 216.81 53.33C216.52 53.14 216.31 52.86 216.22 52.53L216.31 52.53L216.31 55.47L215.49 55.47ZM217.65 52.99C217.84 53 218.03 52.96 218.2 52.89C218.37 52.81 218.53 52.7 218.65 52.56C218.9 52.28 219.02 51.86 219.02 51.31C219.02 50.76 218.9 50.35 218.65 50.07C218.52 49.93 218.37 49.82 218.2 49.75C218.03 49.68 217.84 49.65 217.65 49.65C217.47 49.65 217.28 49.68 217.11 49.75C216.94 49.82 216.79 49.93 216.67 50.07C216.42 50.34 216.3 50.76 216.3 51.31C216.3 51.87 216.42 52.28 216.66 52.56C216.78 52.71 216.94 52.82 217.11 52.89C217.28 52.96 217.47 53 217.66 52.99L217.65 52.99Z" fill="#151515" fill-opacity="1.000000" fill-rule="nonzero"/>
	<path d="M11.17 44.94C11.09 42.89 12.67 41.79 13.38 44.8C14.1 47.81 15.07 54.52 15.07 54.52C15.07 54.52 11.29 53.86 11.33 53.59C11.37 53.32 11.17 44.94 11.17 44.94Z" fill="#00578A" fill-opacity="1.000000" fill-rule="nonzero"/>
	<path d="M7.54 40.01C7.44 37.49 9.39 36.14 10.28 39.84C11.17 43.55 12.38 51.83 12.38 51.83C12.38 51.83 7.69 51.01 7.74 50.68C7.79 50.35 7.54 40.01 7.54 40.01Z" fill="#007D99" fill-opacity="1.000000" fill-rule="nonzero"/>
	<path d="M3.88 36.39C3.77 33.58 5.9 32.08 6.87 36.2C7.83 40.32 9.15 49.54 9.15 49.54C9.15 49.54 3.04 43.15 3.09 42.79C3.15 42.43 3.88 36.39 3.88 36.39Z" fill="#01A6A0" fill-opacity="1.000000" fill-rule="nonzero"/>
	<path d="M28.57 73.1C27.71 59.55 13.63 59.46 7.59 54.65C1.55 49.85 0.22 37.57 0.59 34.82C0.96 32.07 2.43 30.71 3.64 34.55C4.86 38.4 5.99 45.32 10.58 48.52C15.16 51.72 23.76 52.15 18.87 48.61C12.48 44 13.59 39.54 15.1 38.6C16.26 37.89 18.98 42.88 22.76 44.92C26.54 46.96 32.2 48.57 34.81 54.92C37.79 62.14 28.57 73.1 28.57 73.1Z" fill="#00C6BF" fill-opacity="1.000000" fill-rule="nonzero"/>
	<path d="M57.26 6.02C53.09 3.18 46.17 1.55 39.38 5.92C36.62 8.54 34.31 12.1 32.75 16.71C32.75 16.71 24.76 7.92 11.99 12.72C-0.79 17.51 0 31.37 0 31.37C0 31.37 3.68 20.09 15.98 19.37C28.27 18.66 34.67 30.51 34.67 30.51C34.67 30.51 36.23 18.5 47.38 15.64C57.66 13.02 63.85 21.1 61.25 31.16C65.68 20.92 63.88 10.54 57.26 6.02Z" fill="#00578A" fill-opacity="1.000000" fill-rule="nonzero"/>
	<path d="M52.23 48.98C52.23 48.98 41.71 36.48 23.15 43.16C23.15 43.16 32.64 42.95 36.96 53.78C39.64 60.52 33.12 70.41 33.12 70.41C33.12 70.41 44.59 60.98 52.23 48.98Z" fill="#00578A" fill-opacity="1.000000" fill-rule="nonzero"/>
	<path d="M71.34 8.42C65.05 -0.84 49.32 -3.58 39.35 5.89C46.14 1.53 53.07 3.15 57.24 5.99C63.87 10.5 65.66 20.85 61.25 31.08C60.97 32.12 60.63 33.14 60.21 34.12C55.95 44.12 50.88 50.49 50.88 50.49C43.46 61.7 32.85 70.55 32.85 70.55C73.96 53.32 82.12 24.3 71.34 8.42Z" fill="#00C6BF" fill-opacity="1.000000" fill-rule="nonzero"/>
	<g opacity="0.290000" style="mix-blend-mode:multiply">
		<path d="M56.64 16.57C62.14 19.95 62.24 26.78 61.13 31.1C65.54 20.87 63.74 10.52 57.14 6.01C52.98 3.18 46.08 1.55 39.31 5.91C44.78 2.73 57.52 0.14 56.64 16.57Z" fill="#00578A" fill-opacity="1.000000" fill-rule="nonzero"/>
	</g>
	<g opacity="0.290000" style="mix-blend-mode:multiply">
		<path d="M48.48 45.64C46.25 53.66 37.14 66.43 33.12 70.41C33.12 70.41 42.85 62.48 52.23 48.76C51.07 47.69 49.82 46.53 48.48 45.64Z" fill="#00578A" fill-opacity="1.000000" fill-rule="nonzero"/>
	</g>
</svg>
