<svg xmlns="http://www.w3.org/2000/svg" display="none;">



  <symbol id="vk">
      <path d="M48.875 0C21.883 0 0 21.882 0 48.875S21.883 97.75 48.875 97.75 97.75 75.868 97.75 48.875 75.867 0 48.875 0zm24.792 54.161c2.278 2.225 4.688 4.319 6.733 6.774.906 1.086 1.76 2.209 2.41 3.472.928 1.801.09 3.776-1.522 3.883l-10.013-.002c-2.586.214-4.644-.829-6.379-2.597-1.385-1.409-2.67-2.914-4.004-4.371-.545-.598-1.119-1.161-1.803-1.604-1.365-.888-2.551-.616-3.333.81-.797 1.451-.979 3.059-1.055 4.674-.109 2.361-.821 2.978-3.19 3.089-5.062.237-9.865-.531-14.329-3.083-3.938-2.251-6.986-5.428-9.642-9.025-5.172-7.012-9.133-14.708-12.692-22.625-.801-1.783-.215-2.737 1.752-2.774 3.268-.063 6.536-.055 9.804-.003 1.33.021 2.21.782 2.721 2.037 1.766 4.345 3.931 8.479 6.644 12.313.723 1.021 1.461 2.039 2.512 2.76 1.16.796 2.044.533 2.591-.762.35-.823.501-1.703.577-2.585.26-3.021.291-6.041-.159-9.05-.28-1.883-1.339-3.099-3.216-3.455-.956-.181-.816-.535-.351-1.081.807-.944 1.563-1.528 3.074-1.528l11.313-.002c1.783.35 2.183 1.15 2.425 2.946l.01 12.572c-.021.695.349 2.755 1.597 3.21 1 .33 1.66-.472 2.258-1.105 2.713-2.879 4.646-6.277 6.377-9.794.764-1.551 1.423-3.156 2.063-4.764.476-1.189 1.216-1.774 2.558-1.754l10.894.013c.321 0 .647.003.965.058 1.836.314 2.339 1.104 1.771 2.895-.894 2.814-2.631 5.158-4.329 7.508-1.82 2.516-3.761 4.944-5.563 7.471-1.656 2.31-1.525 3.473.531 5.479z"/>
  </symbol>

  <symbol id="whatsapp">
      <path fill="#67C15E" fill-rule="evenodd" stroke="none" d="M23.993 0C10.763 0 0 10.765 0 24a23.824 23.824 0 0 0 4.57 14.067l-2.99 8.917 9.224-2.948A23.81 23.81 0 0 0 24.007 48C37.237 48 48 37.234 48 24S37.238 0 24.007 0h-.014Zm-6.7 12.19c-.466-1.114-.818-1.156-1.523-1.185a13.55 13.55 0 0 0-.804-.027c-.918 0-1.877.268-2.455.86-.705.72-2.454 2.398-2.454 5.841s2.51 6.773 2.849 7.239c.353.465 4.895 7.632 11.947 10.553 5.515 2.286 7.152 2.074 8.407 1.806 1.834-.395 4.133-1.75 4.711-3.386.579-1.637.579-3.034.41-3.33-.17-.296-.636-.465-1.34-.818-.706-.353-4.134-2.046-4.783-2.272-.634-.24-1.24-.155-1.72.522-.677.946-1.34 1.905-1.876 2.483-.423.452-1.115.509-1.693.268-.776-.324-2.948-1.086-5.628-3.47-2.074-1.849-3.484-4.148-3.893-4.84-.41-.705-.042-1.114.282-1.495.353-.438.691-.748 1.044-1.157.352-.41.55-.621.776-1.1.24-.466.07-.946-.1-1.3-.168-.352-1.579-3.795-2.157-5.191Z"/>
  </symbol>

  <symbol id="cross">
      <path d="M17 0L33 0C34.1045 0 35 0.895432 35 2L35 15L48 15C49.1045 15 50 15.8954 50 17L50 33C50 34.1046 49.1045 35 48 35L35 35L35 48C35 49.1046 34.1045 50 33 50L17 50C15.8955 50 15 49.1046 15 48L15 35L2 35C0.895508 35 0 34.1046 0 33L0 17C0 15.8954 0.895508 15 2 15L15 15L15 2C15 0.895432 15.8955 0 17 0Z" clip-rule="evenodd" fill="#00C6BF" fill-opacity="1.000000" fill-rule="evenodd"/>  
  </symbol>

  <symbol id="star">
    <path id="svg" d="M9.07 0.61C9.41 -0.21 10.58 -0.21 10.92 0.61L12.95 5.43C13.1 5.77 13.43 6.01 13.8 6.04L19.07 6.45C19.96 6.52 20.32 7.62 19.64 8.2L15.63 11.59C15.34 11.84 15.22 12.22 15.31 12.58L16.53 17.66C16.74 18.52 15.79 19.2 15.03 18.74L10.52 16.01C10.2 15.82 9.79 15.82 9.47 16.01L4.96 18.74C4.2 19.2 3.25 18.52 3.46 17.66L4.68 12.58C4.77 12.22 4.65 11.84 4.36 11.59L0.35 8.2C-0.33 7.62 0.03 6.52 0.92 6.45L6.19 6.04C6.56 6.01 6.89 5.77 7.04 5.43L9.07 0.61Z" fill="#F25A2A" fill-opacity="1.000000" fill-rule="nonzero"/>
		<path id="svg" d="M33.07 0.61C33.41 -0.21 34.58 -0.21 34.92 0.61L36.95 5.43C37.1 5.77 37.43 6.01 37.8 6.04L43.07 6.45C43.96 6.52 44.32 7.62 43.64 8.2L39.63 11.59C39.34 11.84 39.22 12.22 39.31 12.58L40.53 17.66C40.74 18.52 39.79 19.2 39.03 18.74L34.52 16.01C34.2 15.82 33.79 15.82 33.47 16.01L28.96 18.74C28.2 19.2 27.25 18.52 27.46 17.66L28.68 12.58C28.77 12.22 28.65 11.84 28.36 11.59L24.35 8.2C23.67 7.62 24.03 6.52 24.92 6.45L30.19 6.04C30.56 6.01 30.89 5.77 31.04 5.43L33.07 0.61Z" fill="#F25A2A" fill-opacity="1.000000" fill-rule="nonzero"/>
		<path id="svg" d="M57.07 0.61C57.41 -0.21 58.58 -0.21 58.92 0.61L60.95 5.43C61.1 5.77 61.43 6.01 61.8 6.04L67.07 6.45C67.96 6.52 68.32 7.62 67.64 8.2L63.63 11.59C63.34 11.84 63.22 12.22 63.31 12.58L64.53 17.66C64.74 18.52 63.79 19.2 63.03 18.74L58.52 16.01C58.2 15.82 57.79 15.82 57.47 16.01L52.96 18.74C52.2 19.2 51.25 18.52 51.46 17.66L52.68 12.58C52.77 12.22 52.65 11.84 52.36 11.59L48.35 8.2C47.67 7.62 48.03 6.52 48.92 6.45L54.19 6.04C54.56 6.01 54.89 5.77 55.04 5.43L57.07 0.61Z" fill="#F25A2A" fill-opacity="1.000000" fill-rule="nonzero"/>
		<path id="svg" d="M81.07 0.61C81.41 -0.21 82.58 -0.21 82.92 0.61L84.95 5.43C85.1 5.77 85.43 6.01 85.8 6.04L91.07 6.45C91.96 6.52 92.32 7.62 91.64 8.2L87.63 11.59C87.34 11.84 87.22 12.22 87.31 12.58L88.53 17.66C88.74 18.52 87.79 19.2 87.03 18.74L82.52 16.01C82.2 15.82 81.79 15.82 81.47 16.01L76.96 18.74C76.2 19.2 75.25 18.52 75.46 17.66L76.68 12.58C76.77 12.22 76.65 11.84 76.36 11.59L72.35 8.2C71.67 7.62 72.03 6.52 72.92 6.45L78.19 6.04C78.56 6.01 78.89 5.77 79.04 5.43L81.07 0.61Z" fill="#F25A2A" fill-opacity="1.000000" fill-rule="nonzero"/>
		<path id="svg" d="M105.07 0.61C105.41 -0.21 106.58 -0.21 106.92 0.61L108.95 5.43C109.1 5.77 109.43 6.01 109.8 6.04L115.07 6.45C115.96 6.52 116.32 7.62 115.64 8.2L111.63 11.59C111.34 11.84 111.22 12.22 111.31 12.58L112.53 17.66C112.74 18.52 111.79 19.2 111.03 18.74L106.52 16.01C106.2 15.82 105.79 15.82 105.47 16.01L100.96 18.74C100.2 19.2 99.25 18.52 99.46 17.66L100.68 12.58C100.77 12.22 100.65 11.84 100.36 11.59L96.35 8.2C95.67 7.62 96.03 6.52 96.92 6.45L102.19 6.04C102.56 6.01 102.89 5.77 103.04 5.43L105.07 0.61Z" fill="#F25A2A" fill-opacity="1.000000" fill-rule="nonzero"/>
  </symbol>

</svg>


