<svg width="21.000000" height="19.000000" viewBox="0 0 21 19" fill="none" xmlns="http://www.w3.org/2000/svg" xmlns:xlink="http://www.w3.org/1999/xlink">
	<desc>
			Created with Pixso.
	</desc>
	<defs>
		<clipPath id="clip196_330">
			<rect id="icon" rx="-0.500000" width="20.000000" height="18.000000" transform="translate(0.500000 0.500000)" fill="white" fill-opacity="0"/>
		</clipPath>
	</defs>
	<rect id="icon" rx="-0.500000" width="20.000000" height="18.000000" transform="translate(0.500000 0.500000)" fill="#FFFFFF" fill-opacity="0"/>
	<g clip-path="url(#clip196_330)">
		<path id="Vector" d="M4.5 17C5.88 17 7 15.88 7 14.5C7 13.11 5.88 12 4.5 12C3.11 12 2 13.11 2 14.5C2 15.88 3.11 17 4.5 17ZM4.5 19C6.98 19 9 16.98 9 14.5C9 12.01 6.98 10 4.5 10C2.01 10 0 12.01 0 14.5C0 16.98 2.01 19 4.5 19Z" fill="#4F4F4F" fill-opacity="1.000000" fill-rule="evenodd"/>
		<path id="Vector" d="M16.5 17C17.88 17 19 15.88 19 14.5C19 13.11 17.88 12 16.5 12C15.11 12 14 13.11 14 14.5C14 15.88 15.11 17 16.5 17ZM16.5 19C18.98 19 21 16.98 21 14.5C21 12.01 18.98 10 16.5 10C14.01 10 12 12.01 12 14.5C12 16.98 14.01 19 16.5 19Z" fill="#4F4F4F" fill-opacity="1.000000" fill-rule="evenodd"/>
		<path id="Vector" d="M13 15L8 15L8 13L13 13L13 15Z" fill="#4F4F4F" fill-opacity="1.000000" fill-rule="evenodd"/>
		<path id="Vector" d="M4.46 2.15C2.8 2.15 2 3.6 2 5.38L2 14L0 14L0 5.38C0 2.41 1.7 0 4.46 0L5.46 0C6.01 0 6.46 0.48 6.46 1.07C6.46 1.67 6.01 2.15 5.46 2.15L4.46 2.15Z" fill="#4F4F4F" fill-opacity="1.000000" fill-rule="evenodd"/>
		<path id="Vector" d="M16.53 2.15C18.19 2.15 18.99 3.6 18.99 5.38L18.99 14L20.99 14L20.99 5.38C20.99 2.41 19.29 0 16.53 0L15.53 0C14.98 0 14.53 0.48 14.53 1.07C14.53 1.67 14.98 2.15 15.53 2.15L16.53 2.15Z" fill="#4F4F4F" fill-opacity="1.000000" fill-rule="evenodd"/>
	</g>
</svg>
