<svg width="24.000000" height="24.000000" viewBox="0 0 24 24" fill="none" xmlns="http://www.w3.org/2000/svg" xmlns:xlink="http://www.w3.org/1999/xlink">
	<desc>
			Created with Pixso.
	</desc>
	<defs/>
	<path id="linear" d="M15.49 14L14.7 14L14.42 13.73C15.62 12.33 16.24 10.42 15.9 8.39C15.43 5.6 13.11 3.39 10.31 3.05C6.08 2.53 2.52 6.08 3.04 10.32C3.38 13.12 5.6 15.44 8.38 15.91C10.41 16.25 12.32 15.63 13.72 14.43L13.99 14.71L13.99 15.5L18.24 19.75C18.65 20.16 19.32 20.16 19.73 19.75C20.14 19.34 20.14 18.67 19.73 18.26L15.49 14ZM9.49 14C7 14 4.99 11.99 4.99 9.5C4.99 7.01 7 5 9.49 5C11.98 5 13.99 7.01 13.99 9.5C13.99 11.99 11.98 14 9.49 14Z" fill="#FFFFFF" fill-opacity="1.000000" fill-rule="nonzero"/>
</svg>
