<svg width="9.999023" height="10.008057" viewBox="0 0 9.99902 10.0081" fill="none" xmlns="http://www.w3.org/2000/svg" xmlns:xlink="http://www.w3.org/1999/xlink">
	<desc>
			Created with Pixso.
	</desc>
	<defs/>
	<path id="linear" d="M7.25 5.99C7.11 5.94 6.53 5.63 6.39 5.58C6.26 5.54 6.21 5.54 6.12 5.63C6 5.8 5.86 5.97 5.72 6.12C5.63 6.21 5.58 6.21 5.45 6.17C5.07 6.04 4.73 5.83 4.46 5.54C4.18 5.3 3.95 5.01 3.78 4.68C3.69 4.55 3.78 4.5 3.83 4.41C3.9 4.35 3.96 4.27 4.01 4.19C4.05 4.1 4.1 4.05 4.14 3.96C4.19 3.87 4.14 3.83 4.14 3.74C4.14 3.65 3.87 3.06 3.74 2.84C3.6 2.61 3.56 2.61 3.47 2.61L3.24 2.61C3.13 2.62 3.01 2.67 2.93 2.75C2.78 2.88 2.66 3.04 2.59 3.22C2.51 3.39 2.47 3.59 2.48 3.78C2.52 4.24 2.69 4.68 2.97 5.05C3.49 5.86 4.22 6.5 5.09 6.9C5.41 7.03 5.63 7.08 5.81 7.17C6.06 7.25 6.32 7.26 6.58 7.21C6.92 7.12 7.22 6.91 7.43 6.63C7.49 6.44 7.52 6.24 7.52 6.04C7.43 6.04 7.34 6.03 7.25 6L7.25 5.99ZM5 9.05C4.25 9.06 3.52 8.86 2.88 8.46L2.74 8.37L1.16 8.78L1.57 7.25L1.48 7.11C1.07 6.45 0.85 5.69 0.85 4.9C0.85 4.08 1.1 3.28 1.55 2.6C2.01 1.91 2.66 1.38 3.41 1.07C4.17 0.75 5.01 0.67 5.81 0.83C6.62 0.99 7.36 1.39 7.94 1.97C8.52 2.55 8.91 3.29 9.07 4.09C9.23 4.9 9.15 5.73 8.84 6.49C8.52 7.25 7.99 7.9 7.31 8.35C6.62 8.81 5.82 9.05 5 9.05ZM8.51 1.43C7.57 0.52 6.31 0.01 5 0C3.69 0 2.43 0.52 1.5 1.44C0.57 2.37 0.05 3.63 0.05 4.94C0.05 5.82 0.28 6.67 0.72 7.42L0 10L2.65 9.33C3.39 9.73 4.21 9.93 5.04 9.91C5.69 9.91 6.34 9.78 6.94 9.54C7.54 9.29 8.08 8.92 8.54 8.46C9 8 9.37 7.46 9.62 6.86C9.87 6.26 9.99 5.61 9.99 4.96C9.96 3.64 9.43 2.39 8.5 1.45L8.51 1.43Z" fill="#FBFBFD" fill-opacity="1.000000" fill-rule="nonzero"/>
</svg>
